<?xml version="1.0" standalone="no"?>
<!DOCTYPE svg PUBLIC "-//W3C//DTD SVG 20010904//EN"
 "http://www.w3.org/TR/2001/REC-SVG-20010904/DTD/svg10.dtd">
<svg version="1.0" xmlns="http://www.w3.org/2000/svg"
 width="382.000000pt" height="382.000000pt" viewBox="0 0 382.000000 382.000000"
 preserveAspectRatio="xMidYMid meet">
<metadata>
Created by potrace 1.11, written by Peter Selinger 2001-2013
</metadata>
<g transform="translate(0.000000,382.000000) scale(0.100000,-0.100000)"
fill="#000000" stroke="none">
<path d="M1790 3671 c-94 -29 -137 -73 -165 -166 -58 -197 -60 -229 -17 -290
35 -50 52 -102 52 -162 0 -63 14 -88 72 -132 71 -53 105 -70 130 -63 11 3 51
35 89 71 68 65 69 67 69 118 0 29 11 82 26 125 30 86 48 276 32 334 -13 49
-78 117 -141 149 -51 25 -99 30 -147 16z"/>
<path d="M2023 2837 c-100 -81 -127 -120 -118 -167 4 -19 15 -89 25 -155 19
-125 46 -285 77 -465 10 -58 18 -139 18 -180 0 -67 -4 -83 -40 -155 -33 -66
-45 -81 -66 -83 -30 -4 -69 37 -112 117 -33 59 -35 101 -24 581 l8 365 -23 40
c-24 41 -112 115 -138 115 -8 0 -28 -9 -45 -20 -58 -40 -231 -128 -301 -154
-44 -16 -83 -39 -103 -60 -30 -31 -34 -43 -42 -113 -4 -43 -8 -123 -8 -178 -1
-55 -7 -138 -15 -185 -8 -47 -17 -119 -21 -160 -3 -41 -15 -119 -27 -174 -14
-67 -18 -115 -14 -150 3 -28 10 -100 15 -161 6 -72 18 -135 35 -180 13 -39 32
-102 40 -140 9 -39 25 -92 36 -120 11 -27 24 -76 31 -108 8 -43 25 -79 66
-139 69 -100 80 -127 97 -231 10 -62 16 -81 27 -77 28 8 829 12 829 3 0 -5 46
-8 103 -6 119 3 194 -5 162 -18 -14 -5 -7 -8 27 -8 36 -1 60 7 106 34 76 44
92 81 99 220 2 55 12 125 21 155 26 83 24 614 -2 750 -10 52 -24 147 -31 210
-20 175 -34 282 -56 425 -36 246 -49 339 -49 367 0 45 -30 108 -59 122 -14 7
-43 16 -63 20 -20 4 -111 33 -202 66 -91 33 -170 60 -176 60 -5 0 -44 -28 -87
-63z m291 -400 c12 -9 19 -28 20 -52 1 -45 -11 -51 -116 -56 l-63 -4 3 35 c5
42 17 59 57 76 39 17 77 17 99 1z m-875 -680 c29 -60 29 -170 0 -238 -12 -27
-24 -49 -28 -49 -6 0 -16 17 -45 76 -12 24 -13 40 -6 65 6 19 10 61 10 93 0
41 5 65 17 78 23 26 29 23 52 -25z m969 -2 c7 -25 12 -67 11 -93 l-1 -47 -19
40 c-18 40 -27 145 -11 145 4 0 13 -20 20 -45z m173 -1172 c-9 -16 -10 -15
-11 8 0 14 3 29 8 33 12 12 14 -22 3 -41z"/>
<path d="M2183 493 c9 -2 23 -2 30 0 6 3 -1 5 -18 5 -16 0 -22 -2 -12 -5z"/>
</g>
</svg>
